<svg width="60" height="15" viewBox="0 0 60 15" fill="none" xmlns="http://www.w3.org/2000/svg">
<g clip-path="url(#clip0)">
<path d="M2.55029 12.7761C2.69873 12.7887 2.89438 12.8015 3.13726 12.8142C3.38015 12.8142 3.71075 12.8142 4.12905 12.8142C5.84271 12.8142 7.11786 12.4086 7.95453 11.5974C8.80459 10.7736 9.22962 9.62658 9.22962 8.15636C9.22962 6.6608 8.81806 5.51376 7.99494 4.71527C7.17188 3.91679 5.89674 3.51755 4.16953 3.51755C3.41388 3.51755 2.87414 3.53657 2.55029 3.57459V12.7761ZM11.9014 8.15636C11.9014 9.29702 11.7125 10.292 11.3347 11.1411C10.9568 11.9776 10.4171 12.681 9.71543 13.2514C9.02725 13.8091 8.19058 14.2274 7.2056 14.5062C6.23405 14.7723 5.15456 14.9054 3.96712 14.9054C3.4004 14.9054 2.75945 14.88 2.04428 14.8293C1.32912 14.7913 0.647694 14.7026 0 14.5632V1.7685C0.647694 1.62908 1.33587 1.54037 2.06453 1.50235C2.79318 1.46432 3.44087 1.44531 4.0076 1.44531C5.18155 1.44531 6.25429 1.57839 7.22583 1.84455C8.19739 2.09804 9.02725 2.50361 9.71543 3.06128C10.4171 3.60625 10.9568 4.30338 11.3347 5.15254C11.7125 5.98904 11.9014 6.99028 11.9014 8.15636Z" fill="#2D7DFA"/>
<path d="M28.0602 14.943C27.3315 14.9303 26.7243 14.8543 26.2385 14.7149C25.7663 14.5754 25.3885 14.379 25.1051 14.1255C24.8217 13.8593 24.6193 13.5361 24.4978 13.1559C24.3899 12.763 24.3359 12.3194 24.3359 11.8251V0.380228L26.785 0V11.3878C26.785 11.6667 26.8052 11.9011 26.8457 12.0912C26.8997 12.2814 26.9874 12.4461 27.1089 12.5856C27.2303 12.7123 27.3922 12.8137 27.5947 12.8897C27.8105 12.9532 28.0804 13.0038 28.4042 13.0418L28.0602 14.943ZM34.1096 13.1369C34.8651 13.1369 35.4386 13.0989 35.83 13.0228V10.4753C35.695 10.4372 35.4993 10.3992 35.243 10.3612C34.9866 10.3232 34.7032 10.3042 34.3929 10.3042C34.1231 10.3042 33.8464 10.3232 33.5631 10.3612C33.2932 10.3992 33.0435 10.4689 32.8141 10.5703C32.5982 10.6718 32.4229 10.8175 32.2879 11.0076C32.1529 11.185 32.0855 11.4132 32.0855 11.692C32.0855 12.237 32.2677 12.6172 32.632 12.8327C32.9963 13.0354 33.4888 13.1369 34.1096 13.1369ZM33.9071 4.56274C34.7168 4.56274 35.3982 4.6578 35.9514 4.84791C36.5046 5.03803 36.9432 5.30418 37.2671 5.64639C37.6044 5.98859 37.8405 6.40684 37.9754 6.90114C38.1239 7.38277 38.1981 7.91512 38.1981 8.49808V14.5247C37.8202 14.6008 37.2468 14.6894 36.4777 14.7909C35.722 14.905 34.8651 14.962 33.9071 14.962C33.2729 14.962 32.6927 14.905 32.1664 14.7909C31.6402 14.6768 31.1882 14.4931 30.8104 14.2395C30.446 13.986 30.1559 13.6566 29.94 13.251C29.7376 12.8454 29.6365 12.3448 29.6365 11.7491C29.6365 11.1787 29.7511 10.697 29.9805 10.3042C30.2234 9.91129 30.5472 9.59439 30.952 9.35359C31.3569 9.10012 31.8224 8.92274 32.3486 8.82131C32.8884 8.70721 33.4483 8.65019 34.0286 8.65019C34.2984 8.65019 34.5818 8.6692 34.8787 8.70721C35.1755 8.73262 35.4926 8.7833 35.83 8.85932V8.47908C35.83 8.21294 35.7962 7.95939 35.7288 7.71867C35.6613 7.47786 35.5398 7.26872 35.3645 7.09126C35.2025 6.90114 34.9799 6.75541 34.6965 6.65399C34.4266 6.55258 34.0826 6.5019 33.6643 6.5019C33.0976 6.5019 32.578 6.53993 32.1057 6.61597C31.6335 6.69202 31.2489 6.78071 30.952 6.88213L30.6484 5.01902C30.9588 4.9176 31.4108 4.81625 32.0046 4.71483C32.5982 4.61341 33.2324 4.56274 33.9071 4.56274ZM41.1973 5.13308C41.6697 5.00636 42.2835 4.88593 43.0392 4.77186C43.7949 4.6578 44.6314 4.60076 45.549 4.60076C46.4126 4.60076 47.1345 4.71483 47.7147 4.94297C48.295 5.15845 48.7538 5.46893 49.0911 5.87452C49.4419 6.26741 49.6848 6.74905 49.8197 7.31942C49.9682 7.87711 50.0424 8.49175 50.0424 9.16347V14.7529H47.5933V9.52471C47.5933 8.99243 47.5528 8.5425 47.4719 8.17493C47.4043 7.79468 47.283 7.49046 47.1075 7.26236C46.9456 7.02157 46.7162 6.85046 46.4193 6.74905C46.136 6.63498 45.7851 6.57794 45.3668 6.57794C45.0564 6.57794 44.7326 6.59696 44.3953 6.63498C44.058 6.67301 43.8084 6.70467 43.6464 6.73004V14.7529H41.1973V5.13308ZM55.6887 13.0989C56.3364 13.0989 56.8086 13.0292 57.1055 12.8897C57.4024 12.7376 57.5508 12.4842 57.5508 12.1292C57.5508 11.7998 57.3889 11.5273 57.065 11.3118C56.7547 11.0963 56.2352 10.8619 55.5065 10.6084C55.0613 10.4563 54.6497 10.2978 54.2719 10.1331C53.9076 9.95563 53.5904 9.75284 53.3206 9.52471C53.0507 9.29658 52.8348 9.02403 52.6729 8.70721C52.5245 8.37765 52.4502 7.9784 52.4502 7.50954C52.4502 6.59696 52.8078 5.88088 53.5229 5.36122C54.2381 4.8289 55.2096 4.56274 56.4376 4.56274C57.0583 4.56274 57.652 4.61977 58.2187 4.73384C58.7855 4.83526 59.2106 4.93661 59.4939 5.03802L59.0486 6.90114C58.7787 6.78707 58.4347 6.68565 58.0164 6.59696C57.598 6.49554 57.1123 6.44487 56.559 6.44487C56.0597 6.44487 55.6549 6.52727 55.3446 6.69202C55.0343 6.84411 54.8791 7.08489 54.8791 7.41444C54.8791 7.57922 54.906 7.725 54.9601 7.8517C55.0275 7.9784 55.1354 8.09884 55.2839 8.21294C55.4323 8.31437 55.628 8.42206 55.8708 8.53609C56.1138 8.63752 56.4106 8.74522 56.7615 8.85932C57.3417 9.06211 57.8342 9.2649 58.239 9.46769C58.6438 9.65782 58.9744 9.87954 59.2308 10.1331C59.5006 10.3739 59.6963 10.6528 59.8178 10.9696C59.9392 11.2864 59.9999 11.6667 59.9999 12.1102C59.9999 13.0608 59.622 13.7833 58.8664 14.2776C58.1243 14.7592 57.0583 15 55.6685 15C54.7374 15 53.9885 14.924 53.4218 14.7719C52.855 14.6324 52.457 14.5183 52.2276 14.4296L52.6527 12.5095C53.017 12.6489 53.4487 12.782 53.9481 12.9087C54.4607 13.0354 55.041 13.0989 55.6887 13.0989Z" fill="#2D7DFA"/>
<path d="M18.1964 10.0465L22.2818 7.83099L21.4252 6.4375L17.3398 8.65293L18.1964 10.0465Z" fill="url(#paint0_linear)"/>
<path d="M22.8661 12.7326C22.1548 13.6247 21.1454 14.2802 19.9908 14.6C18.8362 14.9197 17.5992 14.8862 16.4672 14.5045C15.3353 14.1229 14.37 13.4139 13.7176 12.4848C13.0651 11.5558 12.7611 10.4574 12.8516 9.35601C12.9419 8.2546 13.4219 7.21012 14.2186 6.3809C15.0155 5.5516 16.0858 4.9827 17.2673 4.76034C18.4488 4.5379 19.6774 4.67413 20.7668 5.1483C21.8562 5.62254 22.7472 6.40889 23.3048 7.38832L21.5462 8.22774C21.1879 7.59839 20.6153 7.0931 19.9153 6.7884C19.2153 6.48369 18.4259 6.39617 17.6667 6.53908C16.9073 6.682 16.2197 7.04754 15.7077 7.58048C15.1958 8.11327 14.8873 8.78441 14.8293 9.49218C14.7711 10.1999 14.9664 10.9057 15.3857 11.5026C15.8049 12.0996 16.4252 12.5552 17.1525 12.8005C17.8799 13.0457 18.6748 13.0672 19.4167 12.8618C20.1587 12.6563 20.8072 12.2351 21.2643 11.6618L22.8661 12.7326Z" fill="url(#paint1_linear)"/>
</g>
<defs>
<linearGradient id="paint0_linear" x1="19.9591" y1="6.43749" x2="19.9591" y2="10.0465" gradientUnits="userSpaceOnUse">
<stop offset="0.00552486" stop-color="#FF473A"/>
<stop offset="1" stop-color="#F4508E"/>
</linearGradient>
<linearGradient id="paint1_linear" x1="18.3846" y1="4.65623" x2="18.3846" y2="14.8175" gradientUnits="userSpaceOnUse">
<stop offset="0.00552486" stop-color="#FF473A"/>
<stop offset="1" stop-color="#F4508E"/>
</linearGradient>
<clipPath id="clip0">
<rect width="60" height="15" fill="white"/>
</clipPath>
</defs>
</svg>
