<svg width="1920" height="343" viewBox="0 0 1920 343" fill="none" xmlns="http://www.w3.org/2000/svg">
<path fill-rule="evenodd" clip-rule="evenodd" d="M0 343.133H1920V89.0247C1865.47 67.7316 1725.32 111.024 1598.13 150.311C1499.98 180.628 1409.55 208.561 1372.15 202.588C1100.11 252.227 759.138 144.772 545.742 77.5223C457.27 49.6413 390.727 28.6709 360.117 28.6709C216.061 5.18413 81.3574 59.2659 0 136.79V343.133Z" fill="white" fill-opacity="0.48"/>
<path fill-rule="evenodd" clip-rule="evenodd" d="M0 343H1926.28V25.4147C1854.68 2.15335 1773.34 -7.02555 1689.17 5.86061C1654.67 5.86061 1579.68 28.0521 1479.97 57.5565C1239.48 128.722 855.213 242.434 548.636 189.905C506.485 196.225 404.575 166.666 293.963 134.584L293.962 134.583C189.364 104.245 76.9852 71.6499 0 65.0029V343Z" fill="white" fill-opacity="0.4"/>
</svg>
